<?xml version="1.0" encoding="UTF-8" standalone="no"?>
<!DOCTYPE svg PUBLIC "-//W3C//DTD SVG 1.1//EN"
 "http://www.w3.org/Graphics/SVG/1.1/DTD/svg11.dtd">
<!-- Generated by graphviz version 14.1.3 (20260303.0454)
 -->
<!-- Title: ScaleFunnel Pages: 1 -->
<svg width="368pt" height="334pt"
 viewBox="0.00 0.00 368.00 334.00" xmlns="http://www.w3.org/2000/svg" xmlns:xlink="http://www.w3.org/1999/xlink">
<g id="graph0" class="graph" transform="scale(1 1) rotate(0) translate(4 330)">
<title>ScaleFunnel</title>
<!-- Archive -->
<g id="node1" class="node">
<title>Archive</title>
<path fill="#bbdefb" stroke="#1565c0" d="M348,-326C348,-326 12,-326 12,-326 6,-326 0,-320 0,-314 0,-314 0,-298.4 0,-298.4 0,-292.4 6,-286.4 12,-286.4 12,-286.4 348,-286.4 348,-286.4 354,-286.4 360,-292.4 360,-298.4 360,-298.4 360,-314 360,-314 360,-320 354,-326 348,-326"/>
<text xml:space="preserve" text-anchor="start" x="85.5" y="-302.75" font-family="Helvetica,Arial,sans-serif" font-weight="bold" font-size="11.00" fill="#0d47a1">Archive</text>
<text xml:space="preserve" text-anchor="start" x="126" y="-302.75" font-family="Helvetica,Arial,sans-serif" font-size="11.00" fill="#0d47a1"> &#160;· &#160;TB–PB &#160;· &#160;thousands of files</text>
</g>
<!-- Backend -->
<g id="node2" class="node">
<title>Backend</title>
<path fill="#90caf9" stroke="#1565c0" d="M304.8,-254.4C304.8,-254.4 55.2,-254.4 55.2,-254.4 49.2,-254.4 43.2,-248.4 43.2,-242.4 43.2,-242.4 43.2,-226.8 43.2,-226.8 43.2,-220.8 49.2,-214.8 55.2,-214.8 55.2,-214.8 304.8,-214.8 304.8,-214.8 310.8,-214.8 316.8,-220.8 316.8,-226.8 316.8,-226.8 316.8,-242.4 316.8,-242.4 316.8,-248.4 310.8,-254.4 304.8,-254.4"/>
<text xml:space="preserve" text-anchor="start" x="70.5" y="-231.15" font-family="Helvetica,Arial,sans-serif" font-weight="bold" font-size="11.00" fill="#0d47a1">Backend cache</text>
<text xml:space="preserve" text-anchor="start" x="150" y="-231.15" font-family="Helvetica,Arial,sans-serif" font-size="11.00" fill="#0d47a1"> &#160;· &#160;GB &#160;· &#160;tiles &amp; query results</text>
</g>
<!-- Archive&#45;&gt;Backend -->
<g id="edge1" class="edge">
<title>Archive&#45;&gt;Backend</title>
<path fill="none" stroke="#546e7a" d="M180,-286.18C180,-276.36 180,-264.41 180,-254.6"/>
</g>
<!-- CDN -->
<g id="node3" class="node">
<title>CDN</title>
<path fill="#c8e6c9" stroke="#2e7d32" d="M275,-182.8C275,-182.8 85,-182.8 85,-182.8 79,-182.8 73,-176.8 73,-170.8 73,-170.8 73,-155.2 73,-155.2 73,-149.2 79,-143.2 85,-143.2 85,-143.2 275,-143.2 275,-143.2 281,-143.2 287,-149.2 287,-155.2 287,-155.2 287,-170.8 287,-170.8 287,-176.8 281,-182.8 275,-182.8"/>
<text xml:space="preserve" text-anchor="start" x="81" y="-159.55" font-family="Helvetica,Arial,sans-serif" font-weight="bold" font-size="11.00" fill="#1b5e20">CDN / edge</text>
<text xml:space="preserve" text-anchor="start" x="140.25" y="-159.55" font-family="Helvetica,Arial,sans-serif" font-size="11.00" fill="#1b5e20"> &#160;· &#160;MB &#160;· &#160;per&#45;tile PNG / MVT</text>
</g>
<!-- Backend&#45;&gt;CDN -->
<g id="edge2" class="edge">
<title>Backend&#45;&gt;CDN</title>
<path fill="none" stroke="#546e7a" d="M180,-214.58C180,-204.76 180,-192.81 180,-183"/>
</g>
<!-- Browser -->
<g id="node4" class="node">
<title>Browser</title>
<path fill="#a5d6a7" stroke="#2e7d32" d="M262.25,-111.2C262.25,-111.2 97.75,-111.2 97.75,-111.2 91.75,-111.2 85.75,-105.2 85.75,-99.2 85.75,-99.2 85.75,-83.6 85.75,-83.6 85.75,-77.6 91.75,-71.6 97.75,-71.6 97.75,-71.6 262.25,-71.6 262.25,-71.6 268.25,-71.6 274.25,-77.6 274.25,-83.6 274.25,-83.6 274.25,-99.2 274.25,-99.2 274.25,-105.2 268.25,-111.2 262.25,-111.2"/>
<text xml:space="preserve" text-anchor="start" x="93.75" y="-87.95" font-family="Helvetica,Arial,sans-serif" font-weight="bold" font-size="11.00" fill="#1b5e20">Browser cache</text>
<text xml:space="preserve" text-anchor="start" x="171.75" y="-87.95" font-family="Helvetica,Arial,sans-serif" font-size="11.00" fill="#1b5e20"> &#160;· &#160;kB &#160;· &#160;recent tiles</text>
</g>
<!-- CDN&#45;&gt;Browser -->
<g id="edge3" class="edge">
<title>CDN&#45;&gt;Browser</title>
<path fill="none" stroke="#546e7a" d="M180,-142.98C180,-133.16 180,-121.21 180,-111.4"/>
</g>
<!-- Screen -->
<g id="node5" class="node">
<title>Screen</title>
<path fill="#cfd8dc" stroke="#37474f" d="M229.25,-39.6C229.25,-39.6 130.75,-39.6 130.75,-39.6 124.75,-39.6 118.75,-33.6 118.75,-27.6 118.75,-27.6 118.75,-12 118.75,-12 118.75,-6 124.75,0 130.75,0 130.75,0 229.25,0 229.25,0 235.25,0 241.25,-6 241.25,-12 241.25,-12 241.25,-27.6 241.25,-27.6 241.25,-33.6 235.25,-39.6 229.25,-39.6"/>
<text xml:space="preserve" text-anchor="start" x="126.75" y="-16.35" font-family="Helvetica,Arial,sans-serif" font-weight="bold" font-size="11.00" fill="#263238">Screen</text>
<text xml:space="preserve" text-anchor="start" x="163.5" y="-16.35" font-family="Helvetica,Arial,sans-serif" font-size="11.00" fill="#263238"> &#160;· &#160;~1 M pixels</text>
</g>
<!-- Browser&#45;&gt;Screen -->
<g id="edge4" class="edge">
<title>Browser&#45;&gt;Screen</title>
<path fill="none" stroke="#546e7a" d="M180,-71.38C180,-61.56 180,-49.61 180,-39.8"/>
</g>
</g>
</svg>
